<svg xmlns="http://www.w3.org/2000/svg" version="1.1" xmlns:xlink="http://www.w3.org/1999/xlink" width="512" height="512" x="0" y="0" viewBox="0 0 512 512" style="enable-background:new 0 0 512 512" xml:space="preserve" class=""><g><path fill="#fab757" d="M256 512 106.08 256 256 0c141.386 0 256 114.614 256 256S397.386 512 256 512z" opacity="1" data-original="#fab757" class=""></path><path fill="#fdd35e" d="M256 0C114.614 0 0 114.614 0 256c0 48.977 13.762 94.736 37.618 133.637L6.6 505.4l115.762-31.019C161.263 498.237 207.022 512 256 512z" opacity="1" data-original="#fdd35e" class=""></path><path fill="#f2f2f2" d="M256 448.266 143.404 256 256 63.735c106.186 0 192.266 86.08 192.266 192.266S362.186 448.266 256 448.266z" opacity="1" data-original="#f2f2f2" class=""></path><path fill="#ffffff" d="M63.735 256c0-106.186 86.08-192.266 192.266-192.266v384.531C149.814 448.266 63.735 362.186 63.735 256z" opacity="1" data-original="#ffffff" class=""></path><path fill="#f89a4f" d="m378.241 216.281-84.467-12.273L256 127.469l-30 96.398 30 96.399 75.549 39.718-14.429-84.125z" opacity="1" data-original="#f89a4f" class=""></path><path fill="#fab757" d="m218.226 204.008-84.467 12.273 61.121 59.578-14.429 84.125L256 320.266V127.469z" opacity="1" data-original="#fab757" class=""></path></g></svg>